<mxfile host="app.diagrams.net" modified="2023-03-23T10:23:43.753Z" agent="5.0 (Windows NT 10.0; Win64; x64) AppleWebKit/537.36 (KHTML, like Gecko) Chrome/111.0.0.0 Safari/537.36" etag="WPBOpTMKdc5lZKW9ha9Q" version="21.0.8" type="github">
  <diagram name="Page-1" id="0783ab3e-0a74-02c8-0abd-f7b4e66b4bec">
    <mxGraphModel dx="1135" dy="860" grid="1" gridSize="10" guides="1" tooltips="1" connect="1" arrows="1" fold="1" page="1" pageScale="1" pageWidth="850" pageHeight="1100" background="none" math="0" shadow="0">
      <root>
        <mxCell id="0" />
        <mxCell id="1" parent="0" />
        <mxCell id="1c1d494c118603dd-1" value="Pool" style="swimlane;html=1;childLayout=stackLayout;startSize=20;rounded=0;shadow=0;comic=0;labelBackgroundColor=none;strokeWidth=3;fontFamily=Lexend Exa;fontSize=12;align=center;fontSource=https%3A%2F%2Ffonts.googleapis.com%2Fcss%3Ffamily%3DLexend%2BExa;" parent="1" vertex="1">
          <mxGeometry x="40" y="20" width="750" height="990" as="geometry" />
        </mxCell>
        <mxCell id="1c1d494c118603dd-2" value="Lane 1" style="swimlane;html=1;startSize=20;fontFamily=Lexend Exa;fontSource=https%3A%2F%2Ffonts.googleapis.com%2Fcss%3Ffamily%3DLexend%2BExa;strokeWidth=3;" parent="1c1d494c118603dd-1" vertex="1">
          <mxGeometry y="20" width="250" height="970" as="geometry" />
        </mxCell>
        <mxCell id="1c1d494c118603dd-34" style="edgeStyle=none;rounded=0;html=1;labelBackgroundColor=none;startArrow=none;startFill=0;startSize=5;endArrow=classicThin;endFill=1;endSize=5;jettySize=auto;orthogonalLoop=1;strokeWidth=3;fontFamily=Lexend Exa;fontSize=12;fontSource=https%3A%2F%2Ffonts.googleapis.com%2Fcss%3Ffamily%3DLexend%2BExa;" parent="1c1d494c118603dd-2" source="1c1d494c118603dd-6" target="1c1d494c118603dd-10" edge="1">
          <mxGeometry relative="1" as="geometry" />
        </mxCell>
        <mxCell id="1c1d494c118603dd-6" value="Action" style="rounded=1;whiteSpace=wrap;html=1;shadow=0;comic=0;labelBackgroundColor=none;strokeWidth=3;fontFamily=Lexend Exa;fontSize=12;align=center;arcSize=50;fontSource=https%3A%2F%2Ffonts.googleapis.com%2Fcss%3Ffamily%3DLexend%2BExa;" parent="1c1d494c118603dd-2" vertex="1">
          <mxGeometry x="90" y="220" width="100" height="30" as="geometry" />
        </mxCell>
        <mxCell id="1c1d494c118603dd-7" value="Action" style="rounded=1;whiteSpace=wrap;html=1;shadow=0;comic=0;labelBackgroundColor=none;strokeWidth=3;fontFamily=Lexend Exa;fontSize=12;align=center;arcSize=50;fontSource=https%3A%2F%2Ffonts.googleapis.com%2Fcss%3Ffamily%3DLexend%2BExa;" parent="1c1d494c118603dd-2" vertex="1">
          <mxGeometry x="80" y="335" width="100" height="30" as="geometry" />
        </mxCell>
        <mxCell id="1c1d494c118603dd-35" style="edgeStyle=none;rounded=0;html=1;labelBackgroundColor=none;startArrow=none;startFill=0;startSize=5;endArrow=classicThin;endFill=1;endSize=5;jettySize=auto;orthogonalLoop=1;strokeWidth=3;fontFamily=Lexend Exa;fontSize=12;fontSource=https%3A%2F%2Ffonts.googleapis.com%2Fcss%3Ffamily%3DLexend%2BExa;" parent="1c1d494c118603dd-2" source="1c1d494c118603dd-10" target="1c1d494c118603dd-7" edge="1">
          <mxGeometry relative="1" as="geometry" />
        </mxCell>
        <mxCell id="1c1d494c118603dd-10" value="Object" style="rounded=0;whiteSpace=wrap;html=1;shadow=0;comic=0;labelBackgroundColor=none;strokeWidth=3;fontFamily=Lexend Exa;fontSize=12;align=center;arcSize=50;fontSource=https%3A%2F%2Ffonts.googleapis.com%2Fcss%3Ffamily%3DLexend%2BExa;" parent="1c1d494c118603dd-2" vertex="1">
          <mxGeometry x="140" y="280" width="70" height="30" as="geometry" />
        </mxCell>
        <mxCell id="1c1d494c118603dd-46" style="edgeStyle=none;rounded=0;html=1;labelBackgroundColor=none;startArrow=none;startFill=0;startSize=5;endArrow=oval;endFill=0;endSize=5;jettySize=auto;orthogonalLoop=1;strokeWidth=3;fontFamily=Lexend Exa;fontSize=12;dashed=1;fontSource=https%3A%2F%2Ffonts.googleapis.com%2Fcss%3Ffamily%3DLexend%2BExa;" parent="1c1d494c118603dd-2" source="1c1d494c118603dd-21" target="1c1d494c118603dd-6" edge="1">
          <mxGeometry relative="1" as="geometry" />
        </mxCell>
        <mxCell id="1c1d494c118603dd-47" style="edgeStyle=none;rounded=0;html=1;dashed=1;labelBackgroundColor=none;startArrow=none;startFill=0;startSize=5;endArrow=oval;endFill=0;endSize=5;jettySize=auto;orthogonalLoop=1;strokeWidth=3;fontFamily=Lexend Exa;fontSize=12;fontSource=https%3A%2F%2Ffonts.googleapis.com%2Fcss%3Ffamily%3DLexend%2BExa;" parent="1c1d494c118603dd-2" source="1c1d494c118603dd-21" target="1c1d494c118603dd-10" edge="1">
          <mxGeometry relative="1" as="geometry" />
        </mxCell>
        <mxCell id="1c1d494c118603dd-21" value="Note" style="shape=note;whiteSpace=wrap;html=1;rounded=0;shadow=0;comic=0;labelBackgroundColor=none;strokeWidth=3;fontFamily=Lexend Exa;fontSize=12;align=center;size=20;fontSource=https%3A%2F%2Ffonts.googleapis.com%2Fcss%3Ffamily%3DLexend%2BExa;" parent="1c1d494c118603dd-2" vertex="1">
          <mxGeometry x="20" y="274" width="85" height="42" as="geometry" />
        </mxCell>
        <mxCell id="1c1d494c118603dd-3" value="Lane 2" style="swimlane;html=1;startSize=20;fontFamily=Lexend Exa;fontSource=https%3A%2F%2Ffonts.googleapis.com%2Fcss%3Ffamily%3DLexend%2BExa;strokeWidth=3;" parent="1c1d494c118603dd-1" vertex="1">
          <mxGeometry x="250" y="20" width="250" height="970" as="geometry" />
        </mxCell>
        <mxCell id="60571a20871a0731-3" value="" style="whiteSpace=wrap;html=1;rounded=0;shadow=0;comic=0;labelBackgroundColor=none;strokeWidth=3;fillColor=#000000;fontFamily=Lexend Exa;fontSize=12;align=center;rotation=0;fontSource=https%3A%2F%2Ffonts.googleapis.com%2Fcss%3Ffamily%3DLexend%2BExa;" parent="1c1d494c118603dd-3" vertex="1">
          <mxGeometry x="30" y="160" width="147" height="10" as="geometry" />
        </mxCell>
        <mxCell id="1c1d494c118603dd-40" style="edgeStyle=none;rounded=0;html=1;labelBackgroundColor=none;startArrow=none;startFill=0;startSize=5;endArrow=classicThin;endFill=1;endSize=5;jettySize=auto;orthogonalLoop=1;strokeWidth=3;fontFamily=Lexend Exa;fontSize=12;fontSource=https%3A%2F%2Ffonts.googleapis.com%2Fcss%3Ffamily%3DLexend%2BExa;" parent="1c1d494c118603dd-3" source="1c1d494c118603dd-11" target="1c1d494c118603dd-15" edge="1">
          <mxGeometry relative="1" as="geometry" />
        </mxCell>
        <mxCell id="1c1d494c118603dd-11" value="Action" style="rounded=1;whiteSpace=wrap;html=1;shadow=0;comic=0;labelBackgroundColor=none;strokeWidth=3;fontFamily=Lexend Exa;fontSize=12;align=center;arcSize=50;fontSource=https%3A%2F%2Ffonts.googleapis.com%2Fcss%3Ffamily%3DLexend%2BExa;" parent="1c1d494c118603dd-3" vertex="1">
          <mxGeometry x="64" y="450" width="100" height="30" as="geometry" />
        </mxCell>
        <mxCell id="1c1d494c118603dd-39" style="edgeStyle=none;rounded=0;html=1;labelBackgroundColor=none;startArrow=none;startFill=0;startSize=5;endArrow=classicThin;endFill=1;endSize=5;jettySize=auto;orthogonalLoop=1;strokeWidth=3;fontFamily=Lexend Exa;fontSize=12;fontSource=https%3A%2F%2Ffonts.googleapis.com%2Fcss%3Ffamily%3DLexend%2BExa;" parent="1c1d494c118603dd-3" source="1c1d494c118603dd-12" target="1c1d494c118603dd-11" edge="1">
          <mxGeometry relative="1" as="geometry" />
        </mxCell>
        <mxCell id="1c1d494c118603dd-12" value="" style="whiteSpace=wrap;html=1;rounded=0;shadow=0;comic=0;labelBackgroundColor=none;strokeWidth=3;fillColor=#000000;fontFamily=Lexend Exa;fontSize=12;align=center;rotation=0;fontSource=https%3A%2F%2Ffonts.googleapis.com%2Fcss%3Ffamily%3DLexend%2BExa;" parent="1c1d494c118603dd-3" vertex="1">
          <mxGeometry x="40" y="410" width="147" height="10" as="geometry" />
        </mxCell>
        <mxCell id="1c1d494c118603dd-32" style="edgeStyle=orthogonalEdgeStyle;rounded=0;html=1;entryX=0.25;entryY=0;labelBackgroundColor=none;startArrow=none;startFill=0;startSize=5;endArrow=classicThin;endFill=1;endSize=5;jettySize=auto;orthogonalLoop=1;strokeWidth=3;fontFamily=Lexend Exa;fontSize=12;fontSource=https%3A%2F%2Ffonts.googleapis.com%2Fcss%3Ffamily%3DLexend%2BExa;" parent="1c1d494c118603dd-3" source="1c1d494c118603dd-14" target="1c1d494c118603dd-12" edge="1">
          <mxGeometry relative="1" as="geometry" />
        </mxCell>
        <mxCell id="1c1d494c118603dd-14" value="Object" style="rounded=0;whiteSpace=wrap;html=1;shadow=0;comic=0;labelBackgroundColor=none;strokeWidth=3;fontFamily=Lexend Exa;fontSize=12;align=center;arcSize=50;fontSource=https%3A%2F%2Ffonts.googleapis.com%2Fcss%3Ffamily%3DLexend%2BExa;" parent="1c1d494c118603dd-3" vertex="1">
          <mxGeometry x="-40" y="365" width="70" height="30" as="geometry" />
        </mxCell>
        <mxCell id="1c1d494c118603dd-41" style="edgeStyle=none;rounded=0;html=1;labelBackgroundColor=none;startArrow=none;startFill=0;startSize=5;endArrow=classicThin;endFill=1;endSize=5;jettySize=auto;orthogonalLoop=1;strokeWidth=3;fontFamily=Lexend Exa;fontSize=12;fontSource=https%3A%2F%2Ffonts.googleapis.com%2Fcss%3Ffamily%3DLexend%2BExa;" parent="1c1d494c118603dd-3" source="1c1d494c118603dd-15" target="1c1d494c118603dd-16" edge="1">
          <mxGeometry relative="1" as="geometry" />
        </mxCell>
        <mxCell id="1c1d494c118603dd-15" value="Object" style="rounded=0;whiteSpace=wrap;html=1;shadow=0;comic=0;labelBackgroundColor=none;strokeWidth=3;fontFamily=Lexend Exa;fontSize=12;align=center;arcSize=50;fontSource=https%3A%2F%2Ffonts.googleapis.com%2Fcss%3Ffamily%3DLexend%2BExa;" parent="1c1d494c118603dd-3" vertex="1">
          <mxGeometry x="125" y="510" width="70" height="30" as="geometry" />
        </mxCell>
        <mxCell id="1c1d494c118603dd-16" value="Action" style="rounded=1;whiteSpace=wrap;html=1;shadow=0;comic=0;labelBackgroundColor=none;strokeWidth=3;fontFamily=Lexend Exa;fontSize=12;align=center;arcSize=50;fontSource=https%3A%2F%2Ffonts.googleapis.com%2Fcss%3Ffamily%3DLexend%2BExa;" parent="1c1d494c118603dd-3" vertex="1">
          <mxGeometry x="85" y="580" width="100" height="30" as="geometry" />
        </mxCell>
        <mxCell id="1c1d494c118603dd-52" style="edgeStyle=none;rounded=0;html=1;dashed=1;labelBackgroundColor=none;startArrow=none;startFill=0;startSize=5;endArrow=oval;endFill=0;endSize=5;jettySize=auto;orthogonalLoop=1;strokeWidth=3;fontFamily=Lexend Exa;fontSize=12;fontSource=https%3A%2F%2Ffonts.googleapis.com%2Fcss%3Ffamily%3DLexend%2BExa;" parent="1c1d494c118603dd-3" source="1c1d494c118603dd-23" target="1c1d494c118603dd-11" edge="1">
          <mxGeometry relative="1" as="geometry" />
        </mxCell>
        <mxCell id="1c1d494c118603dd-53" style="edgeStyle=none;rounded=0;html=1;dashed=1;labelBackgroundColor=none;startArrow=none;startFill=0;startSize=5;endArrow=oval;endFill=0;endSize=5;jettySize=auto;orthogonalLoop=1;strokeWidth=3;fontFamily=Lexend Exa;fontSize=12;fontSource=https%3A%2F%2Ffonts.googleapis.com%2Fcss%3Ffamily%3DLexend%2BExa;" parent="1c1d494c118603dd-3" source="1c1d494c118603dd-23" target="1c1d494c118603dd-15" edge="1">
          <mxGeometry relative="1" as="geometry" />
        </mxCell>
        <mxCell id="1c1d494c118603dd-23" value="Note" style="shape=note;whiteSpace=wrap;html=1;rounded=0;shadow=0;comic=0;labelBackgroundColor=none;strokeWidth=3;fontFamily=Lexend Exa;fontSize=12;align=center;size=20;fontSource=https%3A%2F%2Ffonts.googleapis.com%2Fcss%3Ffamily%3DLexend%2BExa;" parent="1c1d494c118603dd-3" vertex="1">
          <mxGeometry x="10" y="510" width="90" height="55" as="geometry" />
        </mxCell>
        <mxCell id="1c1d494c118603dd-54" style="edgeStyle=none;rounded=0;html=1;dashed=1;labelBackgroundColor=none;startArrow=none;startFill=0;startSize=5;endArrow=oval;endFill=0;endSize=5;jettySize=auto;orthogonalLoop=1;strokeWidth=3;fontFamily=Lexend Exa;fontSize=12;fontSource=https%3A%2F%2Ffonts.googleapis.com%2Fcss%3Ffamily%3DLexend%2BExa;" parent="1c1d494c118603dd-3" source="1c1d494c118603dd-24" target="1c1d494c118603dd-16" edge="1">
          <mxGeometry relative="1" as="geometry" />
        </mxCell>
        <mxCell id="1c1d494c118603dd-24" value="Note" style="shape=note;whiteSpace=wrap;html=1;rounded=0;shadow=0;comic=0;labelBackgroundColor=none;strokeWidth=3;fontFamily=Lexend Exa;fontSize=12;align=center;size=20;fontSource=https%3A%2F%2Ffonts.googleapis.com%2Fcss%3Ffamily%3DLexend%2BExa;" parent="1c1d494c118603dd-3" vertex="1">
          <mxGeometry x="40" y="648" width="105" height="55" as="geometry" />
        </mxCell>
        <mxCell id="1c1d494c118603dd-4" value="Lane 3" style="swimlane;html=1;startSize=20;fontFamily=Lexend Exa;fontSource=https%3A%2F%2Ffonts.googleapis.com%2Fcss%3Ffamily%3DLexend%2BExa;strokeWidth=3;" parent="1c1d494c118603dd-1" vertex="1">
          <mxGeometry x="500" y="20" width="250" height="970" as="geometry" />
        </mxCell>
        <mxCell id="1c1d494c118603dd-27" style="edgeStyle=orthogonalEdgeStyle;rounded=0;html=1;labelBackgroundColor=none;startArrow=none;startFill=0;startSize=5;endArrow=classicThin;endFill=1;endSize=5;jettySize=auto;orthogonalLoop=1;strokeWidth=3;fontFamily=Lexend Exa;fontSize=12;fontSource=https%3A%2F%2Ffonts.googleapis.com%2Fcss%3Ffamily%3DLexend%2BExa;" parent="1c1d494c118603dd-4" source="60571a20871a0731-4" target="60571a20871a0731-8" edge="1">
          <mxGeometry relative="1" as="geometry" />
        </mxCell>
        <mxCell id="60571a20871a0731-4" value="" style="ellipse;whiteSpace=wrap;html=1;rounded=0;shadow=0;comic=0;labelBackgroundColor=none;strokeWidth=3;fillColor=#000000;fontFamily=Lexend Exa;fontSize=12;align=center;fontSource=https%3A%2F%2Ffonts.googleapis.com%2Fcss%3Ffamily%3DLexend%2BExa;" parent="1c1d494c118603dd-4" vertex="1">
          <mxGeometry x="80" y="40" width="40" height="40" as="geometry" />
        </mxCell>
        <mxCell id="60571a20871a0731-8" value="Action" style="rounded=1;whiteSpace=wrap;html=1;shadow=0;comic=0;labelBackgroundColor=none;strokeWidth=3;fontFamily=Lexend Exa;fontSize=12;align=center;arcSize=50;fontSource=https%3A%2F%2Ffonts.googleapis.com%2Fcss%3Ffamily%3DLexend%2BExa;" parent="1c1d494c118603dd-4" vertex="1">
          <mxGeometry x="50" y="110" width="100" height="30" as="geometry" />
        </mxCell>
        <mxCell id="1c1d494c118603dd-33" style="rounded=0;html=1;labelBackgroundColor=none;startArrow=none;startFill=0;startSize=5;endArrow=classicThin;endFill=1;endSize=5;jettySize=auto;orthogonalLoop=1;strokeWidth=3;fontFamily=Lexend Exa;fontSize=12;fontSource=https%3A%2F%2Ffonts.googleapis.com%2Fcss%3Ffamily%3DLexend%2BExa;" parent="1c1d494c118603dd-4" source="1c1d494c118603dd-5" target="1c1d494c118603dd-9" edge="1">
          <mxGeometry relative="1" as="geometry" />
        </mxCell>
        <mxCell id="1c1d494c118603dd-5" value="Action" style="rounded=1;whiteSpace=wrap;html=1;shadow=0;comic=0;labelBackgroundColor=none;strokeWidth=3;fontFamily=Lexend Exa;fontSize=12;align=center;arcSize=50;fontSource=https%3A%2F%2Ffonts.googleapis.com%2Fcss%3Ffamily%3DLexend%2BExa;" parent="1c1d494c118603dd-4" vertex="1">
          <mxGeometry x="45" y="208" width="100" height="30" as="geometry" />
        </mxCell>
        <mxCell id="1c1d494c118603dd-38" style="edgeStyle=none;rounded=0;html=1;labelBackgroundColor=none;startArrow=none;startFill=0;startSize=5;endArrow=classicThin;endFill=1;endSize=5;jettySize=auto;orthogonalLoop=1;strokeWidth=3;fontFamily=Lexend Exa;fontSize=12;fontSource=https%3A%2F%2Ffonts.googleapis.com%2Fcss%3Ffamily%3DLexend%2BExa;" parent="1c1d494c118603dd-4" source="1c1d494c118603dd-8" target="1c1d494c118603dd-13" edge="1">
          <mxGeometry relative="1" as="geometry" />
        </mxCell>
        <mxCell id="1c1d494c118603dd-8" value="Action" style="rounded=1;whiteSpace=wrap;html=1;shadow=0;comic=0;labelBackgroundColor=none;strokeWidth=3;fontFamily=Lexend Exa;fontSize=12;align=center;arcSize=50;fontSource=https%3A%2F%2Ffonts.googleapis.com%2Fcss%3Ffamily%3DLexend%2BExa;" parent="1c1d494c118603dd-4" vertex="1">
          <mxGeometry x="85" y="330" width="100" height="30" as="geometry" />
        </mxCell>
        <mxCell id="1c1d494c118603dd-37" style="edgeStyle=none;rounded=0;html=1;labelBackgroundColor=none;startArrow=none;startFill=0;startSize=5;endArrow=classicThin;endFill=1;endSize=5;jettySize=auto;orthogonalLoop=1;strokeWidth=3;fontFamily=Lexend Exa;fontSize=12;fontSource=https%3A%2F%2Ffonts.googleapis.com%2Fcss%3Ffamily%3DLexend%2BExa;" parent="1c1d494c118603dd-4" source="1c1d494c118603dd-9" target="1c1d494c118603dd-8" edge="1">
          <mxGeometry relative="1" as="geometry" />
        </mxCell>
        <mxCell id="1c1d494c118603dd-9" value="Object" style="rounded=0;whiteSpace=wrap;html=1;shadow=0;comic=0;labelBackgroundColor=none;strokeWidth=3;fontFamily=Lexend Exa;fontSize=12;align=center;arcSize=50;fontSource=https%3A%2F%2Ffonts.googleapis.com%2Fcss%3Ffamily%3DLexend%2BExa;" parent="1c1d494c118603dd-4" vertex="1">
          <mxGeometry x="15" y="268" width="70" height="30" as="geometry" />
        </mxCell>
        <mxCell id="1c1d494c118603dd-13" value="Object" style="rounded=0;whiteSpace=wrap;html=1;shadow=0;comic=0;labelBackgroundColor=none;strokeWidth=3;fontFamily=Lexend Exa;fontSize=12;align=center;arcSize=50;fontSource=https%3A%2F%2Ffonts.googleapis.com%2Fcss%3Ffamily%3DLexend%2BExa;" parent="1c1d494c118603dd-4" vertex="1">
          <mxGeometry x="-35" y="360" width="70" height="30" as="geometry" />
        </mxCell>
        <mxCell id="1c1d494c118603dd-43" style="edgeStyle=none;rounded=0;html=1;labelBackgroundColor=none;startArrow=none;startFill=0;startSize=5;endArrow=classicThin;endFill=1;endSize=5;jettySize=auto;orthogonalLoop=1;strokeWidth=3;fontFamily=Lexend Exa;fontSize=12;fontSource=https%3A%2F%2Ffonts.googleapis.com%2Fcss%3Ffamily%3DLexend%2BExa;" parent="1c1d494c118603dd-4" source="1c1d494c118603dd-17" target="1c1d494c118603dd-18" edge="1">
          <mxGeometry relative="1" as="geometry" />
        </mxCell>
        <mxCell id="1c1d494c118603dd-17" value="Object" style="rounded=0;whiteSpace=wrap;html=1;shadow=0;comic=0;labelBackgroundColor=none;strokeWidth=3;fontFamily=Lexend Exa;fontSize=12;align=center;arcSize=50;fontSource=https%3A%2F%2Ffonts.googleapis.com%2Fcss%3Ffamily%3DLexend%2BExa;" parent="1c1d494c118603dd-4" vertex="1">
          <mxGeometry x="-35" y="610" width="70" height="30" as="geometry" />
        </mxCell>
        <mxCell id="1c1d494c118603dd-44" style="edgeStyle=none;rounded=0;html=1;labelBackgroundColor=none;startArrow=none;startFill=0;startSize=5;endArrow=classicThin;endFill=1;endSize=5;jettySize=auto;orthogonalLoop=1;strokeWidth=3;fontFamily=Lexend Exa;fontSize=12;fontSource=https%3A%2F%2Ffonts.googleapis.com%2Fcss%3Ffamily%3DLexend%2BExa;" parent="1c1d494c118603dd-4" source="1c1d494c118603dd-18" target="1c1d494c118603dd-19" edge="1">
          <mxGeometry relative="1" as="geometry" />
        </mxCell>
        <mxCell id="1c1d494c118603dd-18" value="Action" style="rounded=1;whiteSpace=wrap;html=1;shadow=0;comic=0;labelBackgroundColor=none;strokeWidth=3;fontFamily=Lexend Exa;fontSize=12;align=center;arcSize=50;fontSource=https%3A%2F%2Ffonts.googleapis.com%2Fcss%3Ffamily%3DLexend%2BExa;" parent="1c1d494c118603dd-4" vertex="1">
          <mxGeometry x="70" y="670" width="100" height="30" as="geometry" />
        </mxCell>
        <mxCell id="1c1d494c118603dd-45" style="edgeStyle=none;rounded=0;html=1;labelBackgroundColor=none;startArrow=none;startFill=0;startSize=5;endArrow=classicThin;endFill=1;endSize=5;jettySize=auto;orthogonalLoop=1;strokeWidth=3;fontFamily=Lexend Exa;fontSize=12;fontSource=https%3A%2F%2Ffonts.googleapis.com%2Fcss%3Ffamily%3DLexend%2BExa;" parent="1c1d494c118603dd-4" source="1c1d494c118603dd-19" target="60571a20871a0731-5" edge="1">
          <mxGeometry relative="1" as="geometry" />
        </mxCell>
        <mxCell id="1c1d494c118603dd-19" value="Action" style="rounded=1;whiteSpace=wrap;html=1;shadow=0;comic=0;labelBackgroundColor=none;strokeWidth=3;fontFamily=Lexend Exa;fontSize=12;align=center;arcSize=50;fontSource=https%3A%2F%2Ffonts.googleapis.com%2Fcss%3Ffamily%3DLexend%2BExa;" parent="1c1d494c118603dd-4" vertex="1">
          <mxGeometry x="70" y="810" width="100" height="30" as="geometry" />
        </mxCell>
        <mxCell id="60571a20871a0731-5" value="" style="shape=mxgraph.bpmn.shape;html=1;verticalLabelPosition=bottom;labelBackgroundColor=#ffffff;verticalAlign=top;perimeter=ellipsePerimeter;outline=end;symbol=terminate;rounded=0;shadow=0;comic=0;strokeWidth=3;fontFamily=Lexend Exa;fontSize=12;align=center;fontSource=https%3A%2F%2Ffonts.googleapis.com%2Fcss%3Ffamily%3DLexend%2BExa;" parent="1c1d494c118603dd-4" vertex="1">
          <mxGeometry x="100" y="880" width="40" height="40" as="geometry" />
        </mxCell>
        <mxCell id="1c1d494c118603dd-48" style="edgeStyle=none;rounded=0;html=1;dashed=1;labelBackgroundColor=none;startArrow=none;startFill=0;startSize=5;endArrow=oval;endFill=0;endSize=5;jettySize=auto;orthogonalLoop=1;strokeWidth=3;fontFamily=Lexend Exa;fontSize=12;fontSource=https%3A%2F%2Ffonts.googleapis.com%2Fcss%3Ffamily%3DLexend%2BExa;" parent="1c1d494c118603dd-4" source="1c1d494c118603dd-20" target="1c1d494c118603dd-5" edge="1">
          <mxGeometry relative="1" as="geometry" />
        </mxCell>
        <mxCell id="1c1d494c118603dd-49" style="edgeStyle=none;rounded=0;html=1;dashed=1;labelBackgroundColor=none;startArrow=none;startFill=0;startSize=5;endArrow=oval;endFill=0;endSize=5;jettySize=auto;orthogonalLoop=1;strokeWidth=3;fontFamily=Lexend Exa;fontSize=12;fontSource=https%3A%2F%2Ffonts.googleapis.com%2Fcss%3Ffamily%3DLexend%2BExa;" parent="1c1d494c118603dd-4" source="1c1d494c118603dd-20" target="1c1d494c118603dd-9" edge="1">
          <mxGeometry relative="1" as="geometry" />
        </mxCell>
        <mxCell id="1c1d494c118603dd-20" value="Note" style="shape=note;whiteSpace=wrap;html=1;rounded=0;shadow=0;comic=0;labelBackgroundColor=none;strokeWidth=3;fontFamily=Lexend Exa;fontSize=12;align=center;size=20;fontSource=https%3A%2F%2Ffonts.googleapis.com%2Fcss%3Ffamily%3DLexend%2BExa;" parent="1c1d494c118603dd-4" vertex="1">
          <mxGeometry x="160" y="256" width="75" height="44" as="geometry" />
        </mxCell>
        <mxCell id="1c1d494c118603dd-50" style="edgeStyle=none;rounded=0;html=1;dashed=1;labelBackgroundColor=none;startArrow=none;startFill=0;startSize=5;endArrow=oval;endFill=0;endSize=5;jettySize=auto;orthogonalLoop=1;strokeWidth=3;fontFamily=Lexend Exa;fontSize=12;fontSource=https%3A%2F%2Ffonts.googleapis.com%2Fcss%3Ffamily%3DLexend%2BExa;" parent="1c1d494c118603dd-4" source="1c1d494c118603dd-22" target="1c1d494c118603dd-8" edge="1">
          <mxGeometry relative="1" as="geometry" />
        </mxCell>
        <mxCell id="1c1d494c118603dd-51" style="edgeStyle=none;rounded=0;html=1;dashed=1;labelBackgroundColor=none;startArrow=none;startFill=0;startSize=5;endArrow=oval;endFill=0;endSize=5;jettySize=auto;orthogonalLoop=1;strokeWidth=3;fontFamily=Lexend Exa;fontSize=12;fontSource=https%3A%2F%2Ffonts.googleapis.com%2Fcss%3Ffamily%3DLexend%2BExa;" parent="1c1d494c118603dd-4" source="1c1d494c118603dd-22" target="1c1d494c118603dd-13" edge="1">
          <mxGeometry relative="1" as="geometry" />
        </mxCell>
        <mxCell id="1c1d494c118603dd-22" value="Note" style="shape=note;whiteSpace=wrap;html=1;rounded=0;shadow=0;comic=0;labelBackgroundColor=none;strokeWidth=3;fontFamily=Lexend Exa;fontSize=12;align=center;size=20;fontSource=https%3A%2F%2Ffonts.googleapis.com%2Fcss%3Ffamily%3DLexend%2BExa;" parent="1c1d494c118603dd-4" vertex="1">
          <mxGeometry x="110" y="415" width="105" height="55" as="geometry" />
        </mxCell>
        <mxCell id="1c1d494c118603dd-56" style="edgeStyle=none;rounded=0;html=1;dashed=1;labelBackgroundColor=none;startArrow=none;startFill=0;startSize=5;endArrow=oval;endFill=0;endSize=5;jettySize=auto;orthogonalLoop=1;strokeWidth=3;fontFamily=Lexend Exa;fontSize=12;fontSource=https%3A%2F%2Ffonts.googleapis.com%2Fcss%3Ffamily%3DLexend%2BExa;" parent="1c1d494c118603dd-4" source="1c1d494c118603dd-25" target="1c1d494c118603dd-18" edge="1">
          <mxGeometry relative="1" as="geometry" />
        </mxCell>
        <mxCell id="1c1d494c118603dd-57" style="edgeStyle=none;rounded=0;html=1;dashed=1;labelBackgroundColor=none;startArrow=none;startFill=0;startSize=5;endArrow=oval;endFill=0;endSize=5;jettySize=auto;orthogonalLoop=1;strokeWidth=3;fontFamily=Lexend Exa;fontSize=12;fontSource=https%3A%2F%2Ffonts.googleapis.com%2Fcss%3Ffamily%3DLexend%2BExa;" parent="1c1d494c118603dd-4" source="1c1d494c118603dd-25" target="1c1d494c118603dd-17" edge="1">
          <mxGeometry relative="1" as="geometry" />
        </mxCell>
        <mxCell id="1c1d494c118603dd-25" value="Note" style="shape=note;whiteSpace=wrap;html=1;rounded=0;shadow=0;comic=0;labelBackgroundColor=none;strokeWidth=3;fontFamily=Lexend Exa;fontSize=12;align=center;size=20;fontSource=https%3A%2F%2Ffonts.googleapis.com%2Fcss%3Ffamily%3DLexend%2BExa;" parent="1c1d494c118603dd-4" vertex="1">
          <mxGeometry x="120" y="590" width="115" height="50" as="geometry" />
        </mxCell>
        <mxCell id="1c1d494c118603dd-58" style="edgeStyle=none;rounded=0;html=1;dashed=1;labelBackgroundColor=none;startArrow=none;startFill=0;startSize=5;endArrow=oval;endFill=0;endSize=5;jettySize=auto;orthogonalLoop=1;strokeWidth=3;fontFamily=Lexend Exa;fontSize=12;fontSource=https%3A%2F%2Ffonts.googleapis.com%2Fcss%3Ffamily%3DLexend%2BExa;" parent="1c1d494c118603dd-4" source="1c1d494c118603dd-26" target="1c1d494c118603dd-19" edge="1">
          <mxGeometry relative="1" as="geometry" />
        </mxCell>
        <mxCell id="1c1d494c118603dd-26" value="Note" style="shape=note;whiteSpace=wrap;html=1;rounded=0;shadow=0;comic=0;labelBackgroundColor=none;strokeWidth=3;fontFamily=Lexend Exa;fontSize=12;align=center;size=20;fontSource=https%3A%2F%2Ffonts.googleapis.com%2Fcss%3Ffamily%3DLexend%2BExa;" parent="1c1d494c118603dd-4" vertex="1">
          <mxGeometry x="150" y="740" width="95" height="45" as="geometry" />
        </mxCell>
        <mxCell id="1c1d494c118603dd-28" style="edgeStyle=orthogonalEdgeStyle;rounded=0;html=1;entryX=0.5;entryY=0;labelBackgroundColor=none;startArrow=none;startFill=0;startSize=5;endArrow=classicThin;endFill=1;endSize=5;jettySize=auto;orthogonalLoop=1;strokeWidth=3;fontFamily=Lexend Exa;fontSize=12;fontSource=https%3A%2F%2Ffonts.googleapis.com%2Fcss%3Ffamily%3DLexend%2BExa;" parent="1c1d494c118603dd-1" source="60571a20871a0731-8" target="60571a20871a0731-3" edge="1">
          <mxGeometry relative="1" as="geometry">
            <Array as="points">
              <mxPoint x="354" y="145" />
            </Array>
          </mxGeometry>
        </mxCell>
        <mxCell id="1c1d494c118603dd-29" style="edgeStyle=orthogonalEdgeStyle;rounded=0;html=1;exitX=0.75;exitY=1;labelBackgroundColor=none;startArrow=none;startFill=0;startSize=5;endArrow=classicThin;endFill=1;endSize=5;jettySize=auto;orthogonalLoop=1;strokeWidth=3;fontFamily=Lexend Exa;fontSize=12;fontSource=https%3A%2F%2Ffonts.googleapis.com%2Fcss%3Ffamily%3DLexend%2BExa;" parent="1c1d494c118603dd-1" source="60571a20871a0731-3" target="1c1d494c118603dd-5" edge="1">
          <mxGeometry relative="1" as="geometry">
            <Array as="points">
              <mxPoint x="390" y="210" />
              <mxPoint x="595" y="210" />
            </Array>
          </mxGeometry>
        </mxCell>
        <mxCell id="1c1d494c118603dd-30" style="edgeStyle=orthogonalEdgeStyle;rounded=0;html=1;exitX=0.25;exitY=1;entryX=0.5;entryY=0;labelBackgroundColor=none;startArrow=none;startFill=0;startSize=5;endArrow=classicThin;endFill=1;endSize=5;jettySize=auto;orthogonalLoop=1;strokeWidth=3;fontFamily=Lexend Exa;fontSize=12;fontSource=https%3A%2F%2Ffonts.googleapis.com%2Fcss%3Ffamily%3DLexend%2BExa;" parent="1c1d494c118603dd-1" source="60571a20871a0731-3" target="1c1d494c118603dd-6" edge="1">
          <mxGeometry relative="1" as="geometry">
            <Array as="points">
              <mxPoint x="317" y="210" />
              <mxPoint x="140" y="210" />
            </Array>
          </mxGeometry>
        </mxCell>
        <mxCell id="1c1d494c118603dd-31" style="edgeStyle=orthogonalEdgeStyle;rounded=0;html=1;entryX=0.75;entryY=0;labelBackgroundColor=none;startArrow=none;startFill=0;startSize=5;endArrow=classicThin;endFill=1;endSize=5;jettySize=auto;orthogonalLoop=1;strokeWidth=3;fontFamily=Lexend Exa;fontSize=12;fontSource=https%3A%2F%2Ffonts.googleapis.com%2Fcss%3Ffamily%3DLexend%2BExa;" parent="1c1d494c118603dd-1" source="1c1d494c118603dd-13" target="1c1d494c118603dd-12" edge="1">
          <mxGeometry relative="1" as="geometry" />
        </mxCell>
        <mxCell id="1c1d494c118603dd-36" style="edgeStyle=none;rounded=0;html=1;labelBackgroundColor=none;startArrow=none;startFill=0;startSize=5;endArrow=classicThin;endFill=1;endSize=5;jettySize=auto;orthogonalLoop=1;strokeWidth=3;fontFamily=Lexend Exa;fontSize=12;fontSource=https%3A%2F%2Ffonts.googleapis.com%2Fcss%3Ffamily%3DLexend%2BExa;" parent="1c1d494c118603dd-1" source="1c1d494c118603dd-7" target="1c1d494c118603dd-14" edge="1">
          <mxGeometry relative="1" as="geometry" />
        </mxCell>
        <mxCell id="1c1d494c118603dd-42" style="edgeStyle=none;rounded=0;html=1;labelBackgroundColor=none;startArrow=none;startFill=0;startSize=5;endArrow=classicThin;endFill=1;endSize=5;jettySize=auto;orthogonalLoop=1;strokeWidth=3;fontFamily=Lexend Exa;fontSize=12;fontSource=https%3A%2F%2Ffonts.googleapis.com%2Fcss%3Ffamily%3DLexend%2BExa;" parent="1c1d494c118603dd-1" source="1c1d494c118603dd-16" target="1c1d494c118603dd-17" edge="1">
          <mxGeometry relative="1" as="geometry" />
        </mxCell>
        <mxCell id="1c1d494c118603dd-55" style="edgeStyle=none;rounded=0;html=1;dashed=1;labelBackgroundColor=none;startArrow=none;startFill=0;startSize=5;endArrow=oval;endFill=0;endSize=5;jettySize=auto;orthogonalLoop=1;strokeWidth=3;fontFamily=Lexend Exa;fontSize=12;fontSource=https%3A%2F%2Ffonts.googleapis.com%2Fcss%3Ffamily%3DLexend%2BExa;" parent="1c1d494c118603dd-1" source="1c1d494c118603dd-24" target="1c1d494c118603dd-17" edge="1">
          <mxGeometry relative="1" as="geometry" />
        </mxCell>
        <mxCell id="_GJ2NRxJg_3hJ979hq8P-35" value="Buy a book at a bookstore" style="swimlane;childLayout=stackLayout;resizeParent=1;resizeParentMax=0;startSize=20;html=1;fontFamily=Lexend Exa;fontSource=https%3A%2F%2Ffonts.googleapis.com%2Fcss%3Ffamily%3DLexend%2BExa;strokeWidth=3;" parent="1" vertex="1">
          <mxGeometry x="915.0000000000005" y="300" width="830" height="810" as="geometry" />
        </mxCell>
        <mxCell id="_GJ2NRxJg_3hJ979hq8P-36" value="Customer" style="swimlane;startSize=20;html=1;fontFamily=Lexend Exa;fontSource=https%3A%2F%2Ffonts.googleapis.com%2Fcss%3Ffamily%3DLexend%2BExa;strokeWidth=3;" parent="_GJ2NRxJg_3hJ979hq8P-35" vertex="1">
          <mxGeometry y="20" width="320" height="790" as="geometry" />
        </mxCell>
        <mxCell id="_GJ2NRxJg_3hJ979hq8P-41" value="" style="edgeStyle=orthogonalEdgeStyle;rounded=0;orthogonalLoop=1;jettySize=auto;html=1;strokeWidth=3;" parent="_GJ2NRxJg_3hJ979hq8P-36" source="_GJ2NRxJg_3hJ979hq8P-39" target="_GJ2NRxJg_3hJ979hq8P-40" edge="1">
          <mxGeometry relative="1" as="geometry" />
        </mxCell>
        <mxCell id="_GJ2NRxJg_3hJ979hq8P-39" value="" style="ellipse;fillColor=strokeColor;html=1;fontFamily=Lexend Exa;fontSource=https%3A%2F%2Ffonts.googleapis.com%2Fcss%3Ffamily%3DLexend%2BExa;strokeWidth=3;" parent="_GJ2NRxJg_3hJ979hq8P-36" vertex="1">
          <mxGeometry x="44.999999999999545" y="36" width="30" height="30" as="geometry" />
        </mxCell>
        <mxCell id="_GJ2NRxJg_3hJ979hq8P-44" value="" style="edgeStyle=orthogonalEdgeStyle;rounded=0;orthogonalLoop=1;jettySize=auto;html=1;strokeWidth=3;" parent="_GJ2NRxJg_3hJ979hq8P-36" source="_GJ2NRxJg_3hJ979hq8P-40" target="_GJ2NRxJg_3hJ979hq8P-43" edge="1">
          <mxGeometry relative="1" as="geometry" />
        </mxCell>
        <mxCell id="_GJ2NRxJg_3hJ979hq8P-40" value="Browse books" style="html=1;align=center;verticalAlign=top;rounded=1;absoluteArcSize=1;arcSize=134;dashed=0;whiteSpace=wrap;fontFamily=Lexend Exa;fontSource=https%3A%2F%2Ffonts.googleapis.com%2Fcss%3Ffamily%3DLexend%2BExa;strokeWidth=3;" parent="_GJ2NRxJg_3hJ979hq8P-36" vertex="1">
          <mxGeometry x="22.5" y="90" width="75" height="40" as="geometry" />
        </mxCell>
        <mxCell id="_GJ2NRxJg_3hJ979hq8P-46" value="" style="edgeStyle=orthogonalEdgeStyle;rounded=0;orthogonalLoop=1;jettySize=auto;html=1;strokeWidth=3;" parent="_GJ2NRxJg_3hJ979hq8P-36" source="_GJ2NRxJg_3hJ979hq8P-43" target="_GJ2NRxJg_3hJ979hq8P-45" edge="1">
          <mxGeometry relative="1" as="geometry" />
        </mxCell>
        <mxCell id="_GJ2NRxJg_3hJ979hq8P-43" value="Put books in cart" style="html=1;align=center;verticalAlign=top;rounded=1;absoluteArcSize=1;arcSize=134;dashed=0;whiteSpace=wrap;fontFamily=Lexend Exa;fontSource=https%3A%2F%2Ffonts.googleapis.com%2Fcss%3Ffamily%3DLexend%2BExa;strokeWidth=3;" parent="_GJ2NRxJg_3hJ979hq8P-36" vertex="1">
          <mxGeometry x="16.25" y="150" width="87.5" height="40" as="geometry" />
        </mxCell>
        <mxCell id="_GJ2NRxJg_3hJ979hq8P-45" value="Bring books to cashier" style="html=1;align=center;verticalAlign=top;rounded=1;absoluteArcSize=1;arcSize=134;dashed=0;whiteSpace=wrap;fontFamily=Lexend Exa;fontSource=https%3A%2F%2Ffonts.googleapis.com%2Fcss%3Ffamily%3DLexend%2BExa;strokeWidth=3;" parent="_GJ2NRxJg_3hJ979hq8P-36" vertex="1">
          <mxGeometry x="16.25" y="220" width="87.5" height="60" as="geometry" />
        </mxCell>
        <mxCell id="_GJ2NRxJg_3hJ979hq8P-63" value="No" style="edgeStyle=orthogonalEdgeStyle;rounded=0;orthogonalLoop=1;jettySize=auto;html=1;strokeWidth=3;fontFamily=Lexend Exa;fontSource=https%3A%2F%2Ffonts.googleapis.com%2Fcss%3Ffamily%3DLexend%2BExa;" parent="_GJ2NRxJg_3hJ979hq8P-36" source="_GJ2NRxJg_3hJ979hq8P-52" target="_GJ2NRxJg_3hJ979hq8P-61" edge="1">
          <mxGeometry relative="1" as="geometry" />
        </mxCell>
        <mxCell id="_GJ2NRxJg_3hJ979hq8P-52" value="Has member card?" style="rhombus;whiteSpace=wrap;html=1;strokeWidth=3;fontFamily=Lexend Exa;fontSource=https%3A%2F%2Ffonts.googleapis.com%2Fcss%3Ffamily%3DLexend%2BExa;" parent="_GJ2NRxJg_3hJ979hq8P-36" vertex="1">
          <mxGeometry x="144.99999999999955" y="300" width="80" height="80" as="geometry" />
        </mxCell>
        <mxCell id="_GJ2NRxJg_3hJ979hq8P-65" value="&lt;font data-font-src=&quot;https://fonts.googleapis.com/css?family=Lexend+Exa&quot; face=&quot;Lexend Exa&quot;&gt;Credit card&lt;/font&gt;" style="edgeStyle=orthogonalEdgeStyle;rounded=0;orthogonalLoop=1;jettySize=auto;html=1;strokeWidth=3;" parent="_GJ2NRxJg_3hJ979hq8P-36" source="_GJ2NRxJg_3hJ979hq8P-61" target="_GJ2NRxJg_3hJ979hq8P-64" edge="1">
          <mxGeometry relative="1" as="geometry" />
        </mxCell>
        <mxCell id="_GJ2NRxJg_3hJ979hq8P-67" value="Cash" style="edgeStyle=orthogonalEdgeStyle;rounded=0;orthogonalLoop=1;jettySize=auto;html=1;fontFamily=Lexend Exa;fontSource=https%3A%2F%2Ffonts.googleapis.com%2Fcss%3Ffamily%3DLexend%2BExa;strokeWidth=3;" parent="_GJ2NRxJg_3hJ979hq8P-36" source="_GJ2NRxJg_3hJ979hq8P-61" target="_GJ2NRxJg_3hJ979hq8P-66" edge="1">
          <mxGeometry relative="1" as="geometry" />
        </mxCell>
        <mxCell id="_GJ2NRxJg_3hJ979hq8P-61" value="Payment method?" style="rhombus;whiteSpace=wrap;html=1;strokeWidth=3;fontFamily=Lexend Exa;fontSource=https%3A%2F%2Ffonts.googleapis.com%2Fcss%3Ffamily%3DLexend%2BExa;" parent="_GJ2NRxJg_3hJ979hq8P-36" vertex="1">
          <mxGeometry x="13.75" y="460" width="97.5" height="80" as="geometry" />
        </mxCell>
        <mxCell id="_GJ2NRxJg_3hJ979hq8P-64" value="Give credit card to cashier" style="html=1;align=center;verticalAlign=top;rounded=1;absoluteArcSize=1;arcSize=134;dashed=0;whiteSpace=wrap;fontFamily=Lexend Exa;fontSource=https%3A%2F%2Ffonts.googleapis.com%2Fcss%3Ffamily%3DLexend%2BExa;strokeWidth=3;" parent="_GJ2NRxJg_3hJ979hq8P-36" vertex="1">
          <mxGeometry x="206.25" y="500" width="102.5" height="60" as="geometry" />
        </mxCell>
        <mxCell id="_GJ2NRxJg_3hJ979hq8P-66" value="Give cash to cashier" style="html=1;align=center;verticalAlign=top;rounded=1;absoluteArcSize=1;arcSize=134;dashed=0;whiteSpace=wrap;fontFamily=Lexend Exa;fontSource=https%3A%2F%2Ffonts.googleapis.com%2Fcss%3Ffamily%3DLexend%2BExa;strokeWidth=3;" parent="_GJ2NRxJg_3hJ979hq8P-36" vertex="1">
          <mxGeometry x="103.75" y="590" width="102.5" height="40" as="geometry" />
        </mxCell>
        <mxCell id="_GJ2NRxJg_3hJ979hq8P-92" value="" style="edgeStyle=orthogonalEdgeStyle;rounded=0;orthogonalLoop=1;jettySize=auto;html=1;strokeWidth=3;" parent="_GJ2NRxJg_3hJ979hq8P-36" source="_GJ2NRxJg_3hJ979hq8P-89" target="_GJ2NRxJg_3hJ979hq8P-91" edge="1">
          <mxGeometry relative="1" as="geometry" />
        </mxCell>
        <mxCell id="_GJ2NRxJg_3hJ979hq8P-89" value="Receive books" style="html=1;align=center;verticalAlign=top;rounded=1;absoluteArcSize=1;arcSize=79;dashed=0;whiteSpace=wrap;fontFamily=Lexend Exa;fontSource=https%3A%2F%2Ffonts.googleapis.com%2Fcss%3Ffamily%3DLexend%2BExa;strokeWidth=3;" parent="_GJ2NRxJg_3hJ979hq8P-36" vertex="1">
          <mxGeometry x="62.5" y="690" width="195" height="30" as="geometry" />
        </mxCell>
        <mxCell id="_GJ2NRxJg_3hJ979hq8P-91" value="" style="ellipse;html=1;shape=endState;fillColor=strokeColor;" parent="_GJ2NRxJg_3hJ979hq8P-36" vertex="1">
          <mxGeometry x="144.99999999999955" y="750" width="30" height="30" as="geometry" />
        </mxCell>
        <mxCell id="_GJ2NRxJg_3hJ979hq8P-37" value="Cashier" style="swimlane;startSize=20;html=1;fontFamily=Lexend Exa;fontSource=https%3A%2F%2Ffonts.googleapis.com%2Fcss%3Ffamily%3DLexend%2BExa;strokeWidth=3;" parent="_GJ2NRxJg_3hJ979hq8P-35" vertex="1">
          <mxGeometry x="320" y="20" width="240" height="790" as="geometry" />
        </mxCell>
        <mxCell id="_GJ2NRxJg_3hJ979hq8P-47" value="Scan books&#39; barcode" style="html=1;align=center;verticalAlign=top;rounded=1;absoluteArcSize=1;arcSize=134;dashed=0;whiteSpace=wrap;fontFamily=Lexend Exa;fontSource=https%3A%2F%2Ffonts.googleapis.com%2Fcss%3Ffamily%3DLexend%2BExa;strokeWidth=3;" parent="_GJ2NRxJg_3hJ979hq8P-37" vertex="1">
          <mxGeometry x="36.25" y="35" width="87.5" height="60" as="geometry" />
        </mxCell>
        <mxCell id="_GJ2NRxJg_3hJ979hq8P-49" value="Ask customer for membership card" style="html=1;align=center;verticalAlign=top;rounded=1;absoluteArcSize=1;arcSize=79;dashed=0;whiteSpace=wrap;fontFamily=Lexend Exa;fontSource=https%3A%2F%2Ffonts.googleapis.com%2Fcss%3Ffamily%3DLexend%2BExa;strokeWidth=3;" parent="_GJ2NRxJg_3hJ979hq8P-37" vertex="1">
          <mxGeometry x="57.5" y="150" width="150" height="50" as="geometry" />
        </mxCell>
        <mxCell id="_GJ2NRxJg_3hJ979hq8P-54" value="Scan the member card" style="html=1;align=center;verticalAlign=top;rounded=1;absoluteArcSize=1;arcSize=79;dashed=0;whiteSpace=wrap;fontFamily=Lexend Exa;fontSource=https%3A%2F%2Ffonts.googleapis.com%2Fcss%3Ffamily%3DLexend%2BExa;strokeWidth=3;" parent="_GJ2NRxJg_3hJ979hq8P-37" vertex="1">
          <mxGeometry x="22.5" y="260" width="195" height="30" as="geometry" />
        </mxCell>
        <mxCell id="_GJ2NRxJg_3hJ979hq8P-68" value="Swipe customer&#39;s credit card" style="html=1;align=center;verticalAlign=top;rounded=1;absoluteArcSize=1;arcSize=79;dashed=0;whiteSpace=wrap;fontFamily=Lexend Exa;fontSource=https%3A%2F%2Ffonts.googleapis.com%2Fcss%3Ffamily%3DLexend%2BExa;strokeWidth=3;" parent="_GJ2NRxJg_3hJ979hq8P-37" vertex="1">
          <mxGeometry x="22.5" y="510" width="195" height="40" as="geometry" />
        </mxCell>
        <mxCell id="_GJ2NRxJg_3hJ979hq8P-70" value="Deduct points for the purchase" style="rhombus;whiteSpace=wrap;html=1;strokeWidth=3;fontFamily=Lexend Exa;fontSource=https%3A%2F%2Ffonts.googleapis.com%2Fcss%3Ffamily%3DLexend%2BExa;" parent="_GJ2NRxJg_3hJ979hq8P-37" vertex="1">
          <mxGeometry x="22.5" y="330" width="159.07" height="100" as="geometry" />
        </mxCell>
        <mxCell id="_GJ2NRxJg_3hJ979hq8P-96" style="edgeStyle=orthogonalEdgeStyle;rounded=0;orthogonalLoop=1;jettySize=auto;html=1;exitX=0.5;exitY=1;exitDx=0;exitDy=0;entryX=0.5;entryY=0;entryDx=0;entryDy=0;fontSize=12;strokeWidth=3;" parent="_GJ2NRxJg_3hJ979hq8P-37" source="_GJ2NRxJg_3hJ979hq8P-78" target="_GJ2NRxJg_3hJ979hq8P-95" edge="1">
          <mxGeometry relative="1" as="geometry" />
        </mxCell>
        <mxCell id="_GJ2NRxJg_3hJ979hq8P-78" value="Enter the amount of cash the customer gave" style="html=1;align=center;verticalAlign=top;rounded=1;absoluteArcSize=1;arcSize=79;dashed=0;whiteSpace=wrap;fontFamily=Lexend Exa;fontSource=https%3A%2F%2Ffonts.googleapis.com%2Fcss%3Ffamily%3DLexend%2BExa;strokeWidth=3;" parent="_GJ2NRxJg_3hJ979hq8P-37" vertex="1">
          <mxGeometry x="22.5" y="570" width="195" height="40" as="geometry" />
        </mxCell>
        <mxCell id="_GJ2NRxJg_3hJ979hq8P-83" value="Give books and receipt to the customer" style="html=1;align=center;verticalAlign=top;rounded=1;absoluteArcSize=1;arcSize=79;dashed=0;whiteSpace=wrap;fontFamily=Lexend Exa;fontSource=https%3A%2F%2Ffonts.googleapis.com%2Fcss%3Ffamily%3DLexend%2BExa;strokeWidth=3;" parent="_GJ2NRxJg_3hJ979hq8P-37" vertex="1">
          <mxGeometry x="12.5" y="690" width="195" height="40" as="geometry" />
        </mxCell>
        <mxCell id="_GJ2NRxJg_3hJ979hq8P-95" value="Return change to customer" style="html=1;align=center;verticalAlign=top;rounded=1;absoluteArcSize=1;arcSize=79;dashed=0;whiteSpace=wrap;fontFamily=Lexend Exa;fontSource=https%3A%2F%2Ffonts.googleapis.com%2Fcss%3Ffamily%3DLexend%2BExa;strokeWidth=3;" parent="_GJ2NRxJg_3hJ979hq8P-37" vertex="1">
          <mxGeometry x="22.5" y="630" width="195" height="40" as="geometry" />
        </mxCell>
        <mxCell id="_GJ2NRxJg_3hJ979hq8P-38" value="System" style="swimlane;startSize=20;html=1;fontFamily=Lexend Exa;fontSource=https%3A%2F%2Ffonts.googleapis.com%2Fcss%3Ffamily%3DLexend%2BExa;strokeWidth=3;" parent="_GJ2NRxJg_3hJ979hq8P-35" vertex="1">
          <mxGeometry x="560" y="20" width="270" height="790" as="geometry" />
        </mxCell>
        <mxCell id="_GJ2NRxJg_3hJ979hq8P-56" value="Book registered in a virtual cart" style="html=1;align=center;verticalAlign=top;rounded=1;absoluteArcSize=1;arcSize=134;dashed=0;whiteSpace=wrap;fontFamily=Lexend Exa;fontSource=https%3A%2F%2Ffonts.googleapis.com%2Fcss%3Ffamily%3DLexend%2BExa;strokeWidth=3;" parent="_GJ2NRxJg_3hJ979hq8P-38" vertex="1">
          <mxGeometry x="16.25" y="40" width="93.75" height="70" as="geometry" />
        </mxCell>
        <mxCell id="_GJ2NRxJg_3hJ979hq8P-58" value="Assigns the membership ID to the cart" style="html=1;align=center;verticalAlign=top;rounded=1;absoluteArcSize=1;arcSize=134;dashed=0;whiteSpace=wrap;fontFamily=Lexend Exa;fontSource=https%3A%2F%2Ffonts.googleapis.com%2Fcss%3Ffamily%3DLexend%2BExa;strokeWidth=3;" parent="_GJ2NRxJg_3hJ979hq8P-38" vertex="1">
          <mxGeometry x="35" y="200" width="143.75" height="60" as="geometry" />
        </mxCell>
        <mxCell id="_GJ2NRxJg_3hJ979hq8P-72" value="Apply number of point to be deducted" style="html=1;align=center;verticalAlign=top;rounded=1;absoluteArcSize=1;arcSize=134;dashed=0;whiteSpace=wrap;fontFamily=Lexend Exa;fontSource=https%3A%2F%2Ffonts.googleapis.com%2Fcss%3Ffamily%3DLexend%2BExa;strokeWidth=3;" parent="_GJ2NRxJg_3hJ979hq8P-38" vertex="1">
          <mxGeometry x="35" y="350" width="143.75" height="60" as="geometry" />
        </mxCell>
        <mxCell id="_GJ2NRxJg_3hJ979hq8P-74" value="Apply number of point to be added to membership" style="html=1;align=center;verticalAlign=top;rounded=1;absoluteArcSize=1;arcSize=134;dashed=0;whiteSpace=wrap;fontFamily=Lexend Exa;fontSource=https%3A%2F%2Ffonts.googleapis.com%2Fcss%3Ffamily%3DLexend%2BExa;strokeWidth=3;" parent="_GJ2NRxJg_3hJ979hq8P-38" vertex="1">
          <mxGeometry x="45" y="460" width="143.75" height="60" as="geometry" />
        </mxCell>
        <mxCell id="_GJ2NRxJg_3hJ979hq8P-87" value="Yes" style="edgeStyle=orthogonalEdgeStyle;rounded=0;orthogonalLoop=1;jettySize=auto;html=1;exitX=0;exitY=0.5;exitDx=0;exitDy=0;entryX=0.25;entryY=0;entryDx=0;entryDy=0;strokeWidth=3;fontFamily=Lexend Exa;fontSource=https%3A%2F%2Ffonts.googleapis.com%2Fcss%3Ffamily%3DLexend%2BExa;" parent="_GJ2NRxJg_3hJ979hq8P-38" source="_GJ2NRxJg_3hJ979hq8P-81" target="_GJ2NRxJg_3hJ979hq8P-85" edge="1">
          <mxGeometry relative="1" as="geometry">
            <Array as="points">
              <mxPoint x="111" y="690" />
              <mxPoint x="111" y="690" />
            </Array>
          </mxGeometry>
        </mxCell>
        <mxCell id="_GJ2NRxJg_3hJ979hq8P-81" value="Transaction succeed?" style="rhombus;whiteSpace=wrap;html=1;strokeWidth=3;fontFamily=Lexend Exa;fontSource=https%3A%2F%2Ffonts.googleapis.com%2Fcss%3Ffamily%3DLexend%2BExa;" parent="_GJ2NRxJg_3hJ979hq8P-38" vertex="1">
          <mxGeometry x="110.93" y="550" width="159.07" height="70" as="geometry" />
        </mxCell>
        <mxCell id="_GJ2NRxJg_3hJ979hq8P-85" value="Change points of membership" style="html=1;align=center;verticalAlign=top;rounded=1;absoluteArcSize=1;arcSize=134;dashed=0;whiteSpace=wrap;fontFamily=Lexend Exa;fontSource=https%3A%2F%2Ffonts.googleapis.com%2Fcss%3Ffamily%3DLexend%2BExa;strokeWidth=3;" parent="_GJ2NRxJg_3hJ979hq8P-38" vertex="1">
          <mxGeometry x="75" y="730" width="143.75" height="40" as="geometry" />
        </mxCell>
        <mxCell id="_GJ2NRxJg_3hJ979hq8P-48" style="edgeStyle=orthogonalEdgeStyle;rounded=0;orthogonalLoop=1;jettySize=auto;html=1;entryX=0;entryY=0.5;entryDx=0;entryDy=0;strokeWidth=3;" parent="_GJ2NRxJg_3hJ979hq8P-35" source="_GJ2NRxJg_3hJ979hq8P-45" target="_GJ2NRxJg_3hJ979hq8P-47" edge="1">
          <mxGeometry relative="1" as="geometry" />
        </mxCell>
        <mxCell id="_GJ2NRxJg_3hJ979hq8P-53" style="edgeStyle=orthogonalEdgeStyle;rounded=0;orthogonalLoop=1;jettySize=auto;html=1;entryX=0.5;entryY=0;entryDx=0;entryDy=0;strokeWidth=3;" parent="_GJ2NRxJg_3hJ979hq8P-35" source="_GJ2NRxJg_3hJ979hq8P-49" target="_GJ2NRxJg_3hJ979hq8P-52" edge="1">
          <mxGeometry relative="1" as="geometry">
            <Array as="points">
              <mxPoint x="265" y="195" />
              <mxPoint x="265" y="290" />
              <mxPoint x="185" y="290" />
            </Array>
          </mxGeometry>
        </mxCell>
        <mxCell id="_GJ2NRxJg_3hJ979hq8P-55" value="Yes" style="edgeStyle=orthogonalEdgeStyle;rounded=0;orthogonalLoop=1;jettySize=auto;html=1;strokeWidth=3;fontFamily=Lexend Exa;fontSource=https%3A%2F%2Ffonts.googleapis.com%2Fcss%3Ffamily%3DLexend%2BExa;verticalAlign=bottom;" parent="_GJ2NRxJg_3hJ979hq8P-35" source="_GJ2NRxJg_3hJ979hq8P-52" target="_GJ2NRxJg_3hJ979hq8P-54" edge="1">
          <mxGeometry relative="1" as="geometry">
            <Array as="points">
              <mxPoint x="440" y="340" />
            </Array>
          </mxGeometry>
        </mxCell>
        <mxCell id="_GJ2NRxJg_3hJ979hq8P-57" value="" style="edgeStyle=orthogonalEdgeStyle;rounded=0;orthogonalLoop=1;jettySize=auto;html=1;strokeWidth=3;" parent="_GJ2NRxJg_3hJ979hq8P-35" source="_GJ2NRxJg_3hJ979hq8P-47" target="_GJ2NRxJg_3hJ979hq8P-56" edge="1">
          <mxGeometry relative="1" as="geometry" />
        </mxCell>
        <mxCell id="_GJ2NRxJg_3hJ979hq8P-51" value="" style="edgeStyle=orthogonalEdgeStyle;rounded=0;orthogonalLoop=1;jettySize=auto;html=1;strokeWidth=3;exitX=0.5;exitY=1;exitDx=0;exitDy=0;" parent="_GJ2NRxJg_3hJ979hq8P-35" source="_GJ2NRxJg_3hJ979hq8P-56" target="_GJ2NRxJg_3hJ979hq8P-49" edge="1">
          <mxGeometry relative="1" as="geometry" />
        </mxCell>
        <mxCell id="_GJ2NRxJg_3hJ979hq8P-59" style="edgeStyle=orthogonalEdgeStyle;rounded=0;orthogonalLoop=1;jettySize=auto;html=1;exitX=0.5;exitY=0;exitDx=0;exitDy=0;entryX=0;entryY=0.5;entryDx=0;entryDy=0;strokeWidth=3;" parent="_GJ2NRxJg_3hJ979hq8P-35" source="_GJ2NRxJg_3hJ979hq8P-54" target="_GJ2NRxJg_3hJ979hq8P-58" edge="1">
          <mxGeometry relative="1" as="geometry" />
        </mxCell>
        <mxCell id="_GJ2NRxJg_3hJ979hq8P-69" value="" style="edgeStyle=orthogonalEdgeStyle;rounded=0;orthogonalLoop=1;jettySize=auto;html=1;strokeWidth=3;" parent="_GJ2NRxJg_3hJ979hq8P-35" source="_GJ2NRxJg_3hJ979hq8P-64" target="_GJ2NRxJg_3hJ979hq8P-68" edge="1">
          <mxGeometry relative="1" as="geometry" />
        </mxCell>
        <mxCell id="_GJ2NRxJg_3hJ979hq8P-71" style="edgeStyle=orthogonalEdgeStyle;rounded=0;orthogonalLoop=1;jettySize=auto;html=1;entryX=1;entryY=0.5;entryDx=0;entryDy=0;strokeWidth=3;" parent="_GJ2NRxJg_3hJ979hq8P-35" source="_GJ2NRxJg_3hJ979hq8P-58" target="_GJ2NRxJg_3hJ979hq8P-70" edge="1">
          <mxGeometry relative="1" as="geometry">
            <Array as="points">
              <mxPoint x="655" y="340" />
              <mxPoint x="522" y="340" />
              <mxPoint x="522" y="400" />
            </Array>
          </mxGeometry>
        </mxCell>
        <mxCell id="_GJ2NRxJg_3hJ979hq8P-73" value="Yes" style="edgeStyle=orthogonalEdgeStyle;rounded=0;orthogonalLoop=1;jettySize=auto;html=1;exitX=1;exitY=1;exitDx=0;exitDy=0;entryX=0;entryY=0.5;entryDx=0;entryDy=0;strokeWidth=3;fontFamily=Lexend Exa;fontSource=https%3A%2F%2Ffonts.googleapis.com%2Fcss%3Ffamily%3DLexend%2BExa;" parent="_GJ2NRxJg_3hJ979hq8P-35" source="_GJ2NRxJg_3hJ979hq8P-70" target="_GJ2NRxJg_3hJ979hq8P-72" edge="1">
          <mxGeometry relative="1" as="geometry" />
        </mxCell>
        <mxCell id="_GJ2NRxJg_3hJ979hq8P-75" value="No" style="edgeStyle=orthogonalEdgeStyle;rounded=0;orthogonalLoop=1;jettySize=auto;html=1;exitX=0.5;exitY=1;exitDx=0;exitDy=0;entryX=0;entryY=0.5;entryDx=0;entryDy=0;fontFamily=Lexend Exa;fontSource=https%3A%2F%2Ffonts.googleapis.com%2Fcss%3Ffamily%3DLexend%2BExa;strokeWidth=3;" parent="_GJ2NRxJg_3hJ979hq8P-35" source="_GJ2NRxJg_3hJ979hq8P-70" target="_GJ2NRxJg_3hJ979hq8P-74" edge="1">
          <mxGeometry relative="1" as="geometry">
            <Array as="points">
              <mxPoint x="443" y="510" />
              <mxPoint x="595" y="510" />
            </Array>
          </mxGeometry>
        </mxCell>
        <mxCell id="_GJ2NRxJg_3hJ979hq8P-76" style="edgeStyle=orthogonalEdgeStyle;rounded=0;orthogonalLoop=1;jettySize=auto;html=1;exitX=0;exitY=0.75;exitDx=0;exitDy=0;entryX=1;entryY=0;entryDx=0;entryDy=0;strokeWidth=3;" parent="_GJ2NRxJg_3hJ979hq8P-35" source="_GJ2NRxJg_3hJ979hq8P-72" target="_GJ2NRxJg_3hJ979hq8P-61" edge="1">
          <mxGeometry relative="1" as="geometry">
            <Array as="points">
              <mxPoint x="595" y="470" />
              <mxPoint x="87" y="470" />
            </Array>
          </mxGeometry>
        </mxCell>
        <mxCell id="_GJ2NRxJg_3hJ979hq8P-77" style="edgeStyle=orthogonalEdgeStyle;rounded=0;orthogonalLoop=1;jettySize=auto;html=1;exitX=0;exitY=0.25;exitDx=0;exitDy=0;entryX=0.837;entryY=0.365;entryDx=0;entryDy=0;entryPerimeter=0;strokeWidth=3;" parent="_GJ2NRxJg_3hJ979hq8P-35" source="_GJ2NRxJg_3hJ979hq8P-74" target="_GJ2NRxJg_3hJ979hq8P-61" edge="1">
          <mxGeometry relative="1" as="geometry">
            <Array as="points">
              <mxPoint x="605" y="490" />
              <mxPoint x="95" y="490" />
            </Array>
          </mxGeometry>
        </mxCell>
        <mxCell id="_GJ2NRxJg_3hJ979hq8P-79" style="edgeStyle=orthogonalEdgeStyle;rounded=0;orthogonalLoop=1;jettySize=auto;html=1;entryX=0;entryY=0.5;entryDx=0;entryDy=0;strokeWidth=3;" parent="_GJ2NRxJg_3hJ979hq8P-35" source="_GJ2NRxJg_3hJ979hq8P-66" target="_GJ2NRxJg_3hJ979hq8P-78" edge="1">
          <mxGeometry relative="1" as="geometry" />
        </mxCell>
        <mxCell id="_GJ2NRxJg_3hJ979hq8P-82" style="edgeStyle=orthogonalEdgeStyle;rounded=0;orthogonalLoop=1;jettySize=auto;html=1;exitX=1;exitY=0.5;exitDx=0;exitDy=0;entryX=0.5;entryY=0;entryDx=0;entryDy=0;strokeWidth=3;" parent="_GJ2NRxJg_3hJ979hq8P-35" source="_GJ2NRxJg_3hJ979hq8P-68" target="_GJ2NRxJg_3hJ979hq8P-81" edge="1">
          <mxGeometry relative="1" as="geometry" />
        </mxCell>
        <mxCell id="_GJ2NRxJg_3hJ979hq8P-88" style="edgeStyle=orthogonalEdgeStyle;rounded=0;orthogonalLoop=1;jettySize=auto;html=1;entryX=1;entryY=0.5;entryDx=0;entryDy=0;strokeWidth=3;" parent="_GJ2NRxJg_3hJ979hq8P-35" source="_GJ2NRxJg_3hJ979hq8P-85" target="_GJ2NRxJg_3hJ979hq8P-83" edge="1">
          <mxGeometry relative="1" as="geometry" />
        </mxCell>
        <mxCell id="_GJ2NRxJg_3hJ979hq8P-90" value="" style="edgeStyle=orthogonalEdgeStyle;rounded=0;orthogonalLoop=1;jettySize=auto;html=1;strokeWidth=3;" parent="_GJ2NRxJg_3hJ979hq8P-35" source="_GJ2NRxJg_3hJ979hq8P-83" target="_GJ2NRxJg_3hJ979hq8P-89" edge="1">
          <mxGeometry relative="1" as="geometry" />
        </mxCell>
        <mxCell id="_GJ2NRxJg_3hJ979hq8P-93" value="No" style="edgeStyle=orthogonalEdgeStyle;rounded=0;orthogonalLoop=1;jettySize=auto;html=1;exitX=1;exitY=0;exitDx=0;exitDy=0;entryX=0.597;entryY=0.106;entryDx=0;entryDy=0;entryPerimeter=0;strokeWidth=3;fontFamily=Lexend Exa;fontSource=https%3A%2F%2Ffonts.googleapis.com%2Fcss%3Ffamily%3DLexend%2BExa;" parent="_GJ2NRxJg_3hJ979hq8P-35" source="_GJ2NRxJg_3hJ979hq8P-81" target="_GJ2NRxJg_3hJ979hq8P-61" edge="1">
          <mxGeometry x="-0.9142" relative="1" as="geometry">
            <Array as="points">
              <mxPoint x="790" y="460" />
              <mxPoint x="72" y="460" />
            </Array>
            <mxPoint as="offset" />
          </mxGeometry>
        </mxCell>
        <mxCell id="_GJ2NRxJg_3hJ979hq8P-97" style="edgeStyle=orthogonalEdgeStyle;rounded=0;orthogonalLoop=1;jettySize=auto;html=1;exitX=1;exitY=0.5;exitDx=0;exitDy=0;entryX=0.083;entryY=0;entryDx=0;entryDy=0;entryPerimeter=0;strokeWidth=3;" parent="_GJ2NRxJg_3hJ979hq8P-35" source="_GJ2NRxJg_3hJ979hq8P-95" target="_GJ2NRxJg_3hJ979hq8P-85" edge="1">
          <mxGeometry relative="1" as="geometry" />
        </mxCell>
        <mxCell id="dHhZXid-f-7BU7orb2X_-1" value="&lt;h1&gt;Data generated&lt;/h1&gt;&lt;p&gt;&lt;/p&gt;&lt;ul style=&quot;font-size: 16px;&quot;&gt;&lt;li&gt;Customer&#39;s personal information&lt;/li&gt;&lt;li&gt;Payment information/history&lt;/li&gt;&lt;li&gt;Customer&#39;s buying history&lt;/li&gt;&lt;li&gt;Book sales history&lt;/li&gt;&lt;/ul&gt;&lt;p&gt;&lt;/p&gt;" style="text;html=1;strokeColor=default;fillColor=none;spacing=5;spacingTop=-20;whiteSpace=wrap;overflow=hidden;rounded=0;strokeWidth=3;fontFamily=Lexend Exa;fontSource=https%3A%2F%2Ffonts.googleapis.com%2Fcss%3Ffamily%3DLexend%2BExa;" vertex="1" parent="1">
          <mxGeometry x="1820" y="340" width="420" height="170" as="geometry" />
        </mxCell>
      </root>
    </mxGraphModel>
  </diagram>
</mxfile>
